<?xml version="1.0" standalone="no"?>
<!DOCTYPE svg PUBLIC "-//W3C//DTD SVG 20010904//EN"
 "http://www.w3.org/TR/2001/REC-SVG-20010904/DTD/svg10.dtd">
<svg version="1.0" xmlns="http://www.w3.org/2000/svg"
 width="420.000000pt" height="420.000000pt" viewBox="0 0 420.000000 420.000000"
 preserveAspectRatio="xMidYMid meet">
<metadata>
Created by potrace 1.14, written by Peter Selinger 2001-2017
</metadata>
<g transform="translate(0.000000,420.000000) scale(0.100000,-0.100000)"
fill="#000000" stroke="none">
<path d="M1921 3842 c-65 -24 -97 -47 -138 -101 -65 -84 -79 -205 -35 -303 10
-24 44 -73 75 -109 58 -68 96 -137 97 -176 0 -13 3 -23 8 -23 4 0 8 -10 9 -22
5 -74 7 -88 13 -88 4 0 6 -14 5 -31 -2 -31 -36 -68 -61 -69 -14 0 -118 -70
-122 -82 -2 -4 -12 -12 -21 -17 -15 -8 -17 -6 -13 20 2 16 8 32 13 35 17 10 9
23 -10 16 -30 -11 -71 -46 -71 -59 0 -7 -4 -13 -10 -13 -7 0 -20 -32 -36 -92
-1 -5 -3 -10 -4 -13 -3 -6 -7 -21 -9 -34 0 -4 -18 -8 -38 -8 -69 -1 -80 -3
-101 -22 -29 -25 -28 -36 6 -39 24 -2 52 -25 52 -43 0 -3 -13 -12 -29 -19 -28
-11 -101 -83 -101 -100 0 -4 -6 -13 -14 -19 -22 -19 -54 -135 -62 -226 -5 -60
-5 -197 0 -220 4 -20 13 -80 22 -140 2 -16 7 -42 10 -56 3 -18 0 -28 -10 -32
-30 -12 -47 -77 -47 -182 1 -196 21 -268 78 -273 34 -3 35 -7 49 -95 8 -58 41
-144 74 -198 16 -27 30 -54 30 -59 0 -6 4 -10 8 -10 5 0 22 -19 39 -42 17 -24
59 -71 94 -106 88 -87 94 -92 107 -92 7 0 12 -4 12 -9 0 -7 54 -35 90 -46 3
-1 13 -5 23 -8 47 -19 90 -27 165 -31 64 -4 162 13 229 40 73 29 216 110 221
125 2 5 10 9 17 9 19 0 185 167 185 186 0 3 6 12 13 19 29 33 37 45 37 55 0 5
4 10 8 10 4 0 16 14 26 31 17 29 21 31 60 25 37 -6 46 -3 69 20 15 15 27 32
27 40 0 7 5 14 11 16 5 2 11 10 13 18 1 8 8 25 14 37 7 13 10 23 7 23 -3 0 -1
9 5 21 39 71 49 231 18 262 -9 9 -21 17 -26 17 -12 0 -10 14 8 55 7 17 14 32
15 35 0 3 16 37 35 75 19 39 35 73 36 78 1 4 3 9 4 12 1 3 4 10 5 15 1 6 3 11
5 13 10 13 20 96 20 182 1 141 -46 308 -122 438 -15 26 -28 51 -28 54 0 4 -6
14 -14 22 -7 9 -28 50 -47 91 -74 165 -167 289 -244 326 -50 24 -78 23 -89 -2
-12 -28 -72 -68 -90 -61 -16 6 -15 18 4 62 29 66 28 67 -52 59 -40 -4 -113 -8
-163 -8 -88 -1 -90 0 -88 22 2 12 -2 22 -8 22 -5 0 -7 5 -3 12 4 7 8 55 8 108
l1 95 55 104 c49 93 55 111 58 176 4 62 0 82 -23 133 -30 68 -93 134 -148 157
-63 26 -154 29 -216 7z"/>
<path d="M980 1749 c-51 -21 -55 -44 -29 -189 11 -63 24 -142 29 -175 6 -33
12 -72 15 -87 5 -31 -10 -38 -20 -9 -3 10 -17 30 -30 44 -23 22 -41 26 -91 19
-15 -3 -57 -40 -61 -55 -1 -7 -4 -21 -7 -32 -2 -11 -5 -22 -5 -25 -1 -3 -5 0
-9 7 -22 35 -109 14 -139 -34 -14 -22 -26 -28 -56 -29 -29 -1 -44 -9 -67 -34
-28 -31 -29 -37 -26 -107 4 -74 22 -118 51 -130 8 -3 29 -51 46 -107 39 -125
68 -184 116 -233 84 -85 206 -108 353 -67 144 41 213 112 246 252 15 66 11
170 -10 210 -48 94 -111 320 -162 581 -29 151 -41 182 -79 199 -30 14 -32 14
-65 1z"/>
</g>
</svg>
